<?xml version="1.0" encoding="utf-8"?>
<!-- Generator: Adobe Illustrator 22.1.0, SVG Export Plug-In . SVG Version: 6.00 Build 0)  -->
<svg version="1.1" id="Layer_1" xmlns="http://www.w3.org/2000/svg" xmlns:xlink="http://www.w3.org/1999/xlink" x="0px" y="0px"
	 viewBox="0 0 841.9 595.3" style="enable-background:new 0 0 841.9 595.3;" xml:space="preserve">
<style type="text/css">
	.st0{fill:#0D8442;}
	.st1{fill:#EF3F3F;}
	.st2{fill:none;}
</style>
<path class="st0" d="M463.8,161.4v80.8l-13-4.7v-69.1c0-3.8-3.1-6.8-6.8-6.8h-35.8c-3.8,0-6.8,3.1-6.8,6.8v51.3l-13.1-4.8v-53
	c0-0.1,0.1-0.2,0.1-0.4c1.9-6.1,6.8-11,13-12.8c0.1,0,0.3-0.1,0.4-0.1h48.7c0.1,0,0.2,0,0.3,0.1
	C456.9,150.5,461.8,155.3,463.8,161.4z"/>
<path class="st0" d="M531.6,304.5h-80.8l4.7-13h69.1c3.8,0,6.8-3.1,6.8-6.8v-35.8c0-3.8-3.1-6.8-6.8-6.8h-51.3l4.8-13.1h53
	c0.1,0,0.2,0.1,0.4,0.1c6.1,1.9,11,6.8,12.8,13c0,0.1,0.1,0.3,0.1,0.4v48.7c0,0.1,0,0.2-0.1,0.3
	C542.5,297.7,537.7,302.5,531.6,304.5z"/>
<path class="st0" d="M464,316.2v53c0,0.1-0.1,0.2-0.1,0.4c-1.9,6.1-6.8,11-13,12.8c-0.1,0-0.3,0.1-0.4,0.1h-48.7
	c-0.1,0-0.2,0-0.3-0.1c-6.1-1.8-11-6.6-13-12.7v-54.6h13v47.6c0,3.8,3.1,6.8,6.8,6.8h35.8c3.8,0,6.8-3.1,6.8-6.8v-51.3L464,316.2z"
	/>
<path class="st0" d="M320.7,249.3V285c0,3.8,3.1,6.8,6.8,6.8h42.1l-4.8,13.1h-43.8c-0.1,0-0.2-0.1-0.4-0.1c-6.1-1.9-11-6.8-12.8-13
	c0-0.1-0.1-0.3-0.1-0.4v-48.7c0-0.1,0-0.2,0.1-0.3c1.8-6.1,6.6-11,12.7-13h80.8l-4.7,13h-69.1C323.8,242.4,320.7,245.5,320.7,249.3z
	"/>
<path class="st1" d="M447.9,296.6c-0.2,0-0.4,0-0.4,0h-2.5l-19,0c-2.6,0-4.3,1.7-5.4,4.2l-1.3-34.1l-0.1-1.9
	c-0.1-1.8-1.4-3.1-3.2-3.1H416c-1.7,0-3.1,1.3-3.3,3c0,0.7-0.1,1.3-0.1,2c-1.3,18.5-2.1,28.3-2.6,33.4c-0.8-0.9-1.7-1.7-2.7-2.2
	c-1.2-0.7-2.7-1-4.2-1c-1.4,0-1.9-0.1-2.2-0.2c-0.4-0.3-1-1.1-1.9-2.4c-0.5-0.7-1-1.5-1.7-2.4c-1.2-1.8-2.7-2.7-4.4-2.7h-0.1
	c-3.4,0-6.2,3.7-7.9,5.8c-0.3,0.3-0.5,0.6-0.6,0.8c-0.9,1.1-3.3,1.8-4.7,2h-7c-1,0-1.8,0.8-1.8,1.8c0,1,0.8,1.8,1.8,1.8h7.1l0.2,0
	c0.5-0.1,4.9-0.7,7-3.2c0.2-0.2,0.4-0.5,0.7-0.9c1-1.4,3.5-4.5,5.2-4.5c0.5,0,1.1,0.4,1.6,1.2c0.6,0.9,1.2,1.7,1.6,2.3
	c2.3,3.4,3,4.2,7,4.2c1.8,0,3.2,0.7,4.2,2c0.5,0.6,0.8,1.3,1.1,2.1c0.2,0.6,0.4,1.2,0.5,1.9c0.3,1.4,1.4,1.7,1.9,1.6
	c1.4-0.1,1.8-1.1,2.1-3.6c0.1-0.5,0.2-1.1,0.2-1.8c0.3-2.3,0.6-5.5,0.9-9.7c0.5-5.9,1.1-13.7,1.8-23.1l1.3,34.7l0.4,9.9
	c0,1.1,0.9,2,2,2h0.1c1.1,0,2-0.8,2.1-1.9l0.1-1c0.2-2.3,0.5-6.1,1.2-9c0.6-2.4,1.6-4.3,3-4.3h21.2c0.1,0,0.3,0,0.6,0
	c1,0,1.8-0.7,1.8-1.7C449.7,297.4,448.9,296.6,447.9,296.6z"/>
<line class="st2" x1="401.5" y1="315.1" x2="388.5" y2="315.1"/>
</svg>
